<svg xmlns="http://www.w3.org/2000/svg" xmlns:xlink="http://www.w3.org/1999/xlink" width="300.76" height="143.081" viewBox="0 0 300.76 143.081">
  <defs>
    <linearGradient id="linear-gradient" x1="0.998" y1="0.679" x2="0.115" y2="0.263" gradientUnits="objectBoundingBox">
      <stop offset="0.003" stop-color="#ffcd00"/>
      <stop offset="0.107" stop-color="#fcc502"/>
      <stop offset="0.264" stop-color="#f4b009"/>
      <stop offset="0.455" stop-color="#e88e15"/>
      <stop offset="0.672" stop-color="#d65f25"/>
      <stop offset="0.909" stop-color="#c12439"/>
      <stop offset="1" stop-color="#b80b42"/>
    </linearGradient>
  </defs>
  <g id="Group_209" data-name="Group 209" transform="translate(-224.255 -357.026)">
    <g id="Group_209-2" data-name="Group 209" transform="translate(224.255 468.033)">
      <path id="Path_19" data-name="Path 19" d="M232.468,417.642a44.232,44.232,0,0,0-5.651,15.856,35.12,35.12,0,0,0,.641,16.151h-1.453a34.074,34.074,0,0,1-1.352-15.754c1.046-6.536,3.053-10.747,6.491-16.254Z" transform="translate(-224.255 -417.574)" fill="#1a1818"/>
      <path id="Path_20" data-name="Path 20" d="M232.675,423.426h2.331l-.359,2.225h-2.3l-2.1,13.036c-.077.5-.051.964.775.964h1.327l-.355,2.223h-2.353c-1.079,0-1.821-.365-1.4-3.022l2.122-13.2h-1.928l.356-2.225h1.93l.8-5.006h1.955Z" transform="translate(-221.035 -416.927)" fill="#1a1818"/>
      <path id="Path_21" data-name="Path 21" d="M235.556,424.279h.053c1.1-2.192,2.324-3.253,4.053-3.253a2.973,2.973,0,0,1,.544.035l-.414,2.587a3.6,3.6,0,0,0-.814-.1c-2.052,0-3.548,1.99-4.028,4.975L233.157,439.7H231.18l2.959-18.447h1.9Z" transform="translate(-218.49 -414.757)" fill="#1a1818"/>
      <path id="Path_22" data-name="Path 22" d="M235.129,442.521l2.959-18.447h1.979l-2.959,18.447Zm3.46-21.564.533-3.315H241.1l-.531,3.315Z" transform="translate(-215.203 -417.574)" fill="#1a1818"/>
      <path id="Path_23" data-name="Path 23" d="M240.579,426.329h-2.032l.355-2.225h2l.253-1.556A9.231,9.231,0,0,1,242.23,419a3.187,3.187,0,0,1,2.9-1.393c.3,0,.645.033.991.068l-.359,2.219c-.293-.031-.539-.064-.762-.064-1.028,0-1.479.465-1.776,2.324l-.313,1.953h2.177l-.357,2.225h-2.179l-2.6,16.223h-1.981Z" transform="translate(-212.837 -417.605)" fill="#1a1818"/>
      <path id="Path_24" data-name="Path 24" d="M241,442.521l4-24.879h1.979l-3.995,24.879Z" transform="translate(-210.312 -417.574)" fill="#1a1818"/>
      <path id="Path_25" data-name="Path 25" d="M250.484,437.178h-.051c-.979,1.887-2.422,2.914-3.775,2.914-2.078,0-3.121-1.46-2.6-4.706l2.285-14.234h1.977l-2.3,14.333c-.249,1.558-.009,2.388,1.4,2.388a3.3,3.3,0,0,0,2.639-1.627,8.826,8.826,0,0,0,1.1-3.249l1.9-11.845h1.979L252.075,439.6H250.1Z" transform="translate(-207.88 -414.652)" fill="#1a1818"/>
      <path id="Path_26" data-name="Path 26" d="M254.419,424.279h.051c1.1-2.192,2.325-3.253,4.053-3.253a2.993,2.993,0,0,1,.546.035l-.416,2.587a3.581,3.581,0,0,0-.812-.1c-2.054,0-3.549,1.99-4.028,4.975l-1.8,11.181h-1.975L253,421.257h1.9Z" transform="translate(-202.79 -414.757)" fill="#1a1818"/>
      <path id="Path_27" data-name="Path 27" d="M253.99,442.521l2.959-18.447h1.979l-2.959,18.447Zm3.461-21.564.531-3.315h1.981l-.533,3.315Z" transform="translate(-199.502 -417.574)" fill="#1a1818"/>
      <path id="Path_28" data-name="Path 28" d="M267.2,417.642h1.983l-4,24.879h-1.9l.388-2.421h-.051c-1.2,2.184-2.172,2.914-3.848,2.914-3.859,0-3.073-6.267-2.655-8.887l.266-1.66c.81-5.041,2.782-8.887,5.609-8.887,1.427,0,2.151.8,2.824,2.388h.049ZM264.734,433c.4-2.521,1.109-7.2-1.547-7.2-1.657,0-3.007,1.722-3.916,7.4-.641,3.98-1.12,7.6,1.583,7.6,2.054,0,3.177-3.418,3.515-5.507Z" transform="translate(-197.2 -417.574)" fill="#1a1818"/>
      <path id="Path_29" data-name="Path 29" d="M262.9,442.521l2.961-18.447h1.979l-2.961,18.447Zm3.461-21.564.533-3.315h1.981l-.537,3.315Z" transform="translate(-192.085 -417.574)" fill="#1a1818"/>
      <path id="Path_30" data-name="Path 30" d="M270.033,423.4h.051c1.206-1.592,2.382-2.521,3.885-2.521,2.082,0,3.2,1.459,2.677,4.709l-2.287,14.233h-1.975l2.166-13.5c.312-1.922.039-3.216-1.561-3.216a3.007,3.007,0,0,0-2.12,1.028,5.5,5.5,0,0,0-1.44,3.35l-1.981,12.341h-1.975l2.959-18.447h1.93Z" transform="translate(-189.944 -414.877)" fill="#1a1818"/>
      <path id="Path_31" data-name="Path 31" d="M280.632,433.683l-.07.431c-.548,3.419-2.4,6.2-5.2,6.2-2.631,0-4.134-2.318-2.943-9.75.623-3.881,2.331-9.684,6.014-9.684,4.508,0,3.352,5.638,2.761,9.952h-6.763l-.185,1.158c-.376,2.324-.808,6.106,1.523,6.106,1.728,0,2.637-1.924,2.947-3.846.027-.169.035-.368.066-.568Zm-1.149-5.006c.268-2.157.918-5.572-1.387-5.572s-2.9,3.383-3.322,5.572Z" transform="translate(-184.509 -414.877)" fill="#1a1818"/>
      <path id="Path_32" data-name="Path 32" d="M289.179,439.824a2.4,2.4,0,0,0-.471.132c-.2,0-.381.035-.557.035-1.275,0-1.708-.432-1.528-2.659h-.05c-.735,1.625-2.232,2.985-3.56,2.985-2.776,0-3.253-2.054-2.714-5.4.112-.7.614-3.35,2.723-4.477,1.233-.667,4.262-2.058,4.557-2.324a2.529,2.529,0,0,0,.63-1.592l.086-.531c.333-2.089-.139-2.884-1.743-2.884-1.726,0-2.184.993-2.507,2.983l-.042.266h-1.777l.059-.365c.566-3.549,2.245-5.107,4.949-5.107,3.533,0,3.247,3.35,3.047,4.577l-1.814,11.313c-.07.427-.119.892.174,1.092a1.587,1.587,0,0,0,.416.064c.148,0,.3-.027.434-.027Zm-1.656-9.954c-1.1.762-2.291,1.328-3.45,1.99a4.372,4.372,0,0,0-1.739,3.185c-.3,1.858-.139,3.053,1.464,3.053.75,0,2.527-.766,3.005-3.749Z" transform="translate(-177.764 -414.877)" fill="#1a1818"/>
      <path id="Path_33" data-name="Path 33" d="M290.51,423.4h.049c1.206-1.592,2.386-2.521,3.887-2.521,2.078,0,3.2,1.459,2.675,4.709l-2.285,14.233H292.86l2.164-13.5c.31-1.922.044-3.216-1.559-3.216a3,3,0,0,0-2.12,1.028,5.531,5.531,0,0,0-1.44,3.35l-1.977,12.341h-1.983l2.963-18.447h1.926Z" transform="translate(-172.903 -414.877)" fill="#1a1818"/>
      <path id="Path_34" data-name="Path 34" d="M302.942,417.642h1.979l-3.993,24.879h-1.9l.387-2.421h-.048c-1.2,2.184-2.171,2.914-3.85,2.914-3.855,0-3.075-6.267-2.657-8.887l.269-1.66c.808-5.041,2.776-8.887,5.607-8.887,1.429,0,2.151.8,2.82,2.388h.055ZM300.477,433c.4-2.521,1.107-7.2-1.548-7.2-1.655,0-3.007,1.722-3.918,7.4-.641,3.98-1.12,7.6,1.587,7.6,2.051,0,3.177-3.418,3.511-5.507Z" transform="translate(-167.448 -417.574)" fill="#1a1818"/>
      <path id="Path_35" data-name="Path 35" d="M306.522,423.426h2.329l-.357,2.225h-2.307L304.1,438.687c-.081.5-.053.964.771.964h1.325l-.354,2.223h-2.357c-1.076,0-1.818-.365-1.391-3.022l2.118-13.2h-1.93l.359-2.225h1.928l.8-5.006h1.953Z" transform="translate(-159.562 -416.927)" fill="#1a1818"/>
      <path id="Path_36" data-name="Path 36" d="M304.9,442.521l2.965-18.447h1.979l-2.963,18.447Zm3.465-21.564.531-3.315h1.977l-.531,3.315Z" transform="translate(-157.122 -417.574)" fill="#1a1818"/>
      <path id="Path_37" data-name="Path 37" d="M308.89,446.058h-1.979l3.962-24.681h1.906l-.332,2.058h.049a4.232,4.232,0,0,1,3.293-2.553c3.533,0,3.8,4.709,3.192,8.492-.841,5.239-2.455,10.943-6.214,10.943-1.4,0-2.058-.927-2.516-2.415H310.2ZM315.2,423.1c-2.578,0-3.4,4.841-3.826,7.462l-.07.431c-.422,2.622-1.063,7.1,1.519,7.1,2.054,0,3.161-2.855,3.962-7.83C317.174,427.849,317.735,423.1,315.2,423.1Z" transform="translate(-155.449 -414.877)" fill="#1a1818"/>
      <path id="Path_38" data-name="Path 38" d="M313.813,442.521l2.961-18.447h1.979l-2.959,18.447Zm3.463-21.564.531-3.315h1.977l-.533,3.315Z" transform="translate(-149.704 -417.574)" fill="#1a1818"/>
      <path id="Path_39" data-name="Path 39" d="M320.873,424.279h.049c1.1-2.192,2.327-3.253,4.053-3.253a2.954,2.954,0,0,1,.544.035l-.412,2.587a3.581,3.581,0,0,0-.812-.1c-2.052,0-3.549,1.99-4.03,4.975l-1.8,11.181h-1.979l2.965-18.447h1.9Z" transform="translate(-147.473 -414.757)" fill="#1a1818"/>
      <path id="Path_40" data-name="Path 40" d="M329.28,439.824a2.345,2.345,0,0,0-.473.132c-.2,0-.381.035-.555.035-1.275,0-1.711-.432-1.526-2.659h-.051c-.735,1.625-2.232,2.985-3.559,2.985-2.782,0-3.253-2.054-2.716-5.4.112-.7.612-3.35,2.725-4.477,1.233-.667,4.262-2.058,4.555-2.324a2.519,2.519,0,0,0,.63-1.592l.084-.531c.333-2.089-.136-2.884-1.739-2.884-1.728,0-2.192.993-2.509,2.983l-.046.266h-1.776l.057-.365c.572-3.549,2.248-5.107,4.955-5.107,3.531,0,3.242,3.35,3.046,4.577l-1.816,11.313c-.07.427-.117.892.176,1.092a1.585,1.585,0,0,0,.414.064c.15,0,.308-.027.432-.027Zm-1.658-9.954c-1.1.762-2.292,1.328-3.451,1.99a4.378,4.378,0,0,0-1.739,3.185c-.3,1.858-.139,3.053,1.466,3.053.748,0,2.529-.766,3.005-3.749Z" transform="translate(-144.382 -414.877)" fill="#1a1818"/>
      <path id="Path_41" data-name="Path 41" d="M328.728,430.566l-.134.828c-.387,2.423-.949,6.7,1.578,6.7,2.157,0,2.749-2.459,3.214-4.713h1.876c-.645,3.551-2.192,6.932-5.3,6.932-4.259,0-4.1-4.706-3.337-9.483.724-4.513,2.149-9.952,6.406-9.952,2.782,0,3.681,2.818,3.137,6.2l-.016.1H334.3c.3-2.021.229-4.077-1.649-4.077C330.053,423.1,329.181,427.748,328.728,430.566Z" transform="translate(-139.386 -414.877)" fill="#1a1818"/>
      <path id="Path_42" data-name="Path 42" d="M331.625,442.521l2.959-18.447h1.975L333.6,442.521Zm3.46-21.564.531-3.315H337.6l-.533,3.315Z" transform="translate(-134.876 -417.574)" fill="#1a1818"/>
      <path id="Path_43" data-name="Path 43" d="M334.181,442.521l3.989-24.879h1.979l-3.993,24.879Z" transform="translate(-132.749 -417.574)" fill="#1a1818"/>
      <path id="Path_44" data-name="Path 44" d="M335.8,449.649a44.037,44.037,0,0,0,5.651-15.854,35.131,35.131,0,0,0-.636-16.153h1.453a34.132,34.132,0,0,1,1.35,15.755c-1.05,6.534-3.053,10.744-6.491,16.252Z" transform="translate(-131.404 -417.574)" fill="#1a1818"/>
      <path id="Path_45" data-name="Path 45" d="M348.691,423.426h2.331l-.363,2.225h-2.3l-2.093,13.036c-.079.5-.053.964.773.964h1.327l-.355,2.223h-2.355c-1.079,0-1.82-.365-1.4-3.022l2.12-13.2h-1.926l.355-2.225h1.93l.8-5.006h1.955Z" transform="translate(-124.461 -416.927)" fill="#1a1818"/>
      <path id="Path_46" data-name="Path 46" d="M355.907,439.824a2.328,2.328,0,0,0-.471.132c-.2,0-.381.035-.557.035-1.275,0-1.71-.432-1.526-2.659H353.3c-.735,1.625-2.232,2.985-3.559,2.985-2.78,0-3.254-2.054-2.716-5.4.112-.7.614-3.35,2.725-4.477,1.233-.667,4.262-2.058,4.555-2.324a2.519,2.519,0,0,0,.63-1.592l.086-.531c.334-2.089-.137-2.884-1.741-2.884-1.73,0-2.192.993-2.509,2.983l-.044.266h-1.779l.059-.365c.572-3.549,2.248-5.107,4.955-5.107,3.531,0,3.242,3.35,3.047,4.577l-1.82,11.313c-.068.427-.114.892.178,1.092a1.6,1.6,0,0,0,.414.064c.15,0,.308-.027.432-.027Zm-1.658-9.954c-1.1.762-2.291,1.328-3.45,1.99a4.378,4.378,0,0,0-1.739,3.185c-.293,1.858-.139,3.053,1.466,3.053.751,0,2.529-.766,3.005-3.749Z" transform="translate(-122.218 -414.877)" fill="#1a1818"/>
      <path id="Path_47" data-name="Path 47" d="M354.5,442.521h-1.8l3.993-24.879h1.983l-1.34,8.325h.049c1.043-1.66,2.061-2.388,3.289-2.388,3.529,0,3.621,4.744,3.014,8.523-.841,5.244-2.28,10.912-6.036,10.912-1.2,0-2.267-.53-2.749-2.686h-.05Zm1.435-8.625c-.438,2.719-1.083,6.9,1.675,6.9,2.052,0,3.086-2.855,3.887-7.83.387-2.419,1.022-7.163-1.508-7.163-2.6,0-3.43,4.213-3.885,7.031l-.147.931Z" transform="translate(-117.333 -417.574)" fill="#1a1818"/>
      <path id="Path_48" data-name="Path 48" d="M359.016,442.521l3.991-24.879h1.979l-3.993,24.879Z" transform="translate(-112.075 -417.574)" fill="#1a1818"/>
      <path id="Path_49" data-name="Path 49" d="M370.39,433.683l-.072.431c-.548,3.419-2.4,6.2-5.2,6.2-2.633,0-4.136-2.318-2.945-9.75.623-3.881,2.331-9.684,6.014-9.684,4.508,0,3.353,5.638,2.76,9.952h-6.762L364,431.992c-.372,2.324-.806,6.106,1.525,6.106,1.726,0,2.637-1.924,2.945-3.846.027-.169.033-.368.066-.568Zm-1.151-5.006c.269-2.157.92-5.572-1.382-5.572s-2.9,3.383-3.328,5.572Z" transform="translate(-109.792 -414.877)" fill="#1a1818"/>
      <path id="Path_50" data-name="Path 50" d="M372.1,423.426h2.329l-.359,2.225h-2.305l-2.091,13.036c-.079.5-.051.964.773.964h1.325l-.354,2.223h-2.355c-1.081,0-1.818-.365-1.4-3.022l2.12-13.2h-1.926l.354-2.225h1.931l.8-5.006h1.955Z" transform="translate(-104.97 -416.927)" fill="#1a1818"/>
      <path id="Path_51" data-name="Path 51" d="M378.475,426.321l.059-.365c.306-1.922-.169-2.851-1.746-2.851-1.4,0-2.344.861-2.652,2.785-.383,2.388,1.045,2.686,2.276,3.451,1.81,1.193,3.711,1.858,3.157,5.309-.563,3.482-2.74,5.668-5.545,5.668h-.178a3.1,3.1,0,0,1-3.044-1.92,6.242,6.242,0,0,1-.209-3.551l.064-.4h1.878l-.059.363c-.328,2.06.075,3.287,1.827,3.287,1.6,0,2.794-.863,3.155-3.117.423-2.622-1.545-2.855-2.846-3.65-1.983-1.063-3.082-2.025-2.564-5.243.513-3.183,2.514-5.206,4.916-5.206,2.706,0,4.053,1.591,3.463,5.274l-.028.165Z" transform="translate(-102.569 -414.877)" fill="#1a1818"/>
    </g>
    <path id="Path_52" data-name="Path 52" d="M226.912,435.164l11.7-54.947h15.23l-9.428,44.291h24.905l-2.273,10.656Z" transform="translate(2.212 19.305)" fill="#9a0046"/>
    <path id="Path_53" data-name="Path 53" d="M296.562,408.35c-3,14.075-14.594,20.241-26.552,20.241s-20.926-6.166-17.929-20.241,14.594-20.236,26.543-20.236,20.932,6.173,17.938,20.236m-24.771,11.869c6.093,0,8.765-6.485,9.912-11.869s1.239-11.858-4.858-11.858-8.766,6.463-9.91,11.858-1.237,11.869,4.856,11.869" transform="translate(22.679 25.878)" fill="#9a0046"/>
    <path id="Path_54" data-name="Path 54" d="M297.707,394.065a18.115,18.115,0,0,1,13.091-5.321c8.228,0,13.179,5.321,11.387,13.765l-5.446,25.557H302.266l4.786-22.447c.64-3.714.586-7.74-3.912-7.74-7.154,0-7.911,7.821-8.011,8.275l-4.664,21.912H276l6.042-28.364a96.3,96.3,0,0,0,1.635-9.82h14.7Z" transform="translate(43.071 26.403)" fill="#9a0046"/>
    <path id="Path_55" data-name="Path 55" d="M327.232,401.064a4.184,4.184,0,0,0-.236-3.192c-.581-.848-1.688-1.38-3.663-1.38a4.025,4.025,0,0,0-4.16,3.434c-.594,2.811,5.3,2.659,13.762,5.47,4.264,1.433,6.784,4.242,5.455,10.485-2.148,10.126-12.224,12.71-20.981,12.71-9.369,0-18.125-1.9-15.572-13.549h13.729a3.757,3.757,0,0,0,.273,3.421,3.577,3.577,0,0,0,3.053,1.756c2.82,0,5.1-1.067,5.618-3.509,1.442-6.773-22.068-2.736-19.107-16.563,2.025-9.439,12.624-12.032,20.245-12.032,9.06,0,16.939,2.364,15.292,12.95Z" transform="translate(64.208 25.878)" fill="#9a0046"/>
    <path id="Path_56" data-name="Path 56" d="M348.31,422.739a18.09,18.09,0,0,1-13.1,5.327c-8.224,0-13.179-5.327-11.378-13.778l5.442-25.544h14.467L338.97,411.16c-.645,3.736-.586,7.768,3.909,7.768,7.156,0,7.912-7.843,8.006-8.3l4.669-21.881h14.465l-6.043,28.366a96.388,96.388,0,0,0-1.629,9.82h-14.7Z" transform="translate(82.587 26.403)" fill="#9a0046"/>
    <path id="Path_57" data-name="Path 57" d="M368.675,397.045h.156c3.023-6.318,8.2-8.451,14.562-8.3l-2.609,12.266c-1.05-.083-2.038-.083-3.031-.083-7.555.083-11.1,4.557-12.426,11.843l-3.267,15.3H347.6l6.032-28.364a94.731,94.731,0,0,0,1.636-9.82h14.7Z" transform="translate(102.678 26.396)" fill="#9a0046"/>
    <path id="Path_58" data-name="Path 58" d="M368.9,435.577l6.188-29.051h-7.158l1.941-9.133h7.311c2.263-12.8,6.655-17.672,19.679-17.672a36.108,36.108,0,0,1,7.577.909l-1.929,9.06a13.836,13.836,0,0,0-3.861-.828c-4.878,0-6.391,4.262-7.152,8.532h8.918l-1.95,9.133h-8.9l-6.192,29.051Z" transform="translate(119.599 18.892)" fill="#9a0046"/>
    <path id="Path_59" data-name="Path 59" d="M385.235,406.172h3.324c1.605,0,2.25.751,2.25,2A1.793,1.793,0,0,1,389.532,410a2.305,2.305,0,0,1,1.266,2.1c0,.346-.011,1.2-.011,1.2h-1.1v-.878c0-1.336-.282-1.988-1.457-1.988h-1.719v2.9h-1.273Zm1.273,3.28h1.933c.826,0,1.261-.339,1.261-1.1,0-.955-.607-1.2-1.275-1.2h-1.919v2.3m1.235,7.5a7.159,7.159,0,1,0-7.17-7.19,7.164,7.164,0,0,0,7.17,7.19m0-.96a6.214,6.214,0,1,1,6.01-6.23,5.991,5.991,0,0,1-6.01,6.23" transform="translate(130.125 37.966)" fill="#9a0046"/>
    <g id="Group_210" data-name="Group 210" transform="translate(256.883 378.702)">
      <path id="Path_60" data-name="Path 60" d="M246,368.855l-3.938,18.332c14.146,8.277,42.254,8.867,59.373,7.585A82.693,82.693,0,0,0,351.8,372.586a77.065,77.065,0,0,1-46.6,11.579C287.3,383.04,262.883,377.139,246,368.855Z" transform="translate(-242.061 -368.855)" fill="#9a0046"/>
    </g>
    <g id="Group_211" data-name="Group 211" transform="translate(334.11 357.026)">
      <path id="Path_61" data-name="Path 61" d="M449.754,402.488l5.8-26.341a171.957,171.957,0,0,0-85.12-19,146.122,146.122,0,0,0-86.227,31.8,144.594,144.594,0,0,1,80.171-16.386C395.833,375.084,425.425,384.945,449.754,402.488Z" transform="translate(-284.205 -357.026)" fill="url(#linear-gradient)"/>
    </g>
  </g>
</svg>
