<svg xmlns="http://www.w3.org/2000/svg" xmlns:xlink="http://www.w3.org/1999/xlink" width="115" height="97" viewBox="0 0 115 97"><defs><clipPath id="a"><path d="M0,0H115V37H0Z" fill="none"/></clipPath></defs><g transform="translate(0 0)"><g transform="translate(0 60)"><path d="M0,0H115V37H0Z" fill="none"/><g clip-path="url(#a)"><path d="M107,37c-1.7,0-2.019-1.1-2.055-1.757h1.038a.934.934,0,0,0,1.052.888c1,0,1.2-.751,1.2-1.964v-.507a1.4,1.4,0,0,1-1.436.912c-1.243,0-1.9-1.055-1.9-3.05,0-2.111.742-3.321,2.036-3.321.928,0,1.212.493,1.3.787a5.342,5.342,0,0,1,.049-.681h.988c-.012.324-.018.907-.018,1.834v4.027C109.247,35.639,108.975,37,107,37Zm.159-7.893c-.787,0-1.2.827-1.2,2.392,0,1.442.381,2.173,1.133,2.173.823,0,1.159-.676,1.159-2.335C108.247,29.925,108.068,29.107,107.157,29.107ZM58.315,36.95h-1.29a12.264,12.264,0,0,0,2.161-7.122,12.957,12.957,0,0,0-2.161-7.318h1.29a12.855,12.855,0,0,1,2.125,7.335,12.613,12.613,0,0,1-2.125,7.1Zm-54.9,0H2.125A12.856,12.856,0,0,1,0,29.615a12.606,12.606,0,0,1,2.125-7.1H3.414a12.258,12.258,0,0,0-2.16,7.122,12.963,12.963,0,0,0,2.159,7.316Zm27.042-2.2a2.234,2.234,0,0,1-2.271-2.5A2.555,2.555,0,0,1,29,30.276a3.689,3.689,0,0,1,2.527-.786c.383,0,.636,0,.89.025V28.422c0-.682-.143-1.464-1.255-1.464-1.214,0-1.294.857-1.347,1.425h-1.3a2.684,2.684,0,0,1,.592-1.725,2.652,2.652,0,0,1,2.1-.791,2.671,2.671,0,0,1,1.9.605,2.414,2.414,0,0,1,.633,1.818V33c0,.536.046,1.311.071,1.595H32.583a5.737,5.737,0,0,1-.086-.973A2.03,2.03,0,0,1,30.456,34.748ZM31.6,30.527c-1.334,0-2.068.574-2.068,1.616A1.308,1.308,0,0,0,30.828,33.6c1.153,0,1.623-.758,1.623-2.615v-.42A5.9,5.9,0,0,0,31.6,30.527ZM9.574,34.748c-1.437,0-2.165-.872-2.165-2.593V26.01h1.36v5.83c0,1.188.385,1.717,1.247,1.717,1.059,0,1.574-.771,1.574-2.357V26.01h1.362v6.205c0,1.173,0,1.973.019,2.381H11.679a8.131,8.131,0,0,1-.065-1.128A1.991,1.991,0,0,1,9.574,34.748Zm45.59-.01a1.827,1.827,0,0,1-1.847-1.13c0,.281-.018.669-.045.988H51.99c.017-.484.018-1.4.018-2.373v-9.66H53.36v4.549a2.053,2.053,0,0,1,2.046-1.246c1.689,0,2.545,1.418,2.545,4.216a7.271,7.271,0,0,1-.621,3.326A2.31,2.31,0,0,1,55.164,34.738Zm-.139-7.68c-1.218,0-1.715.944-1.715,3.258s.465,3.237,1.6,3.237,1.665-1.094,1.665-3.444C56.579,28.028,56.085,27.059,55.024,27.059Zm-30.482,7.68a1.827,1.827,0,0,1-1.847-1.13c0,.281-.018.669-.045.988H21.369c.017-.484.018-1.4.018-2.373v-9.66h1.352v4.549a2.053,2.053,0,0,1,2.046-1.246c1.689,0,2.545,1.418,2.545,4.216a7.273,7.273,0,0,1-.621,3.326A2.31,2.31,0,0,1,24.542,34.738Zm-.139-7.68c-1.218,0-1.715.944-1.715,3.258s.465,3.237,1.6,3.237,1.664-1.094,1.664-3.444C25.957,28.028,25.463,27.059,24.4,27.059Zm55.189,7.655c-1.914,0-2.159-1.749-2.159-3.272,0-2.089.782-3.239,2.2-3.239s2.1.938,2.1,2.951c0,.153-.006.38-.019.517H78.464a2.887,2.887,0,0,0,.473,1.9.906.906,0,0,0,.667.261c.415,0,.938-.182,1.074-1.048v-.008h1v.01A2.031,2.031,0,0,1,79.591,34.713Zm.037-5.637c-.72,0-1.105.606-1.147,1.8h2.225a3.276,3.276,0,0,0-.182-1.216A.9.9,0,0,0,79.628,29.076ZM37.2,34.713c-1.177,0-1.657-.526-1.657-1.814V27.161h-1.2V26.01h1.2V23.729h1.342V26.01h1.478v1.151H36.886v5.478c0,.593.126.937.771.937a3.219,3.219,0,0,0,.588-.044v1.033A3.155,3.155,0,0,1,37.2,34.713Zm-20.662,0c-1.177,0-1.658-.526-1.658-1.814V27.161h-1.2V26.01h1.2V23.729h1.343V26.01H17.7v1.151H16.223v5.478c0,.593.126.937.771.937a3.229,3.229,0,0,0,.588-.044v1.033A3.159,3.159,0,0,1,16.538,34.713Zm70.321-.006a1.831,1.831,0,0,1-2.016-1.944h1.019a1.033,1.033,0,0,0,1.045,1.116.847.847,0,0,0,.944-.916c0-.584-.269-.875-1.108-1.2-1.281-.485-1.713-.957-1.713-1.873a1.647,1.647,0,0,1,1.852-1.7,1.7,1.7,0,0,1,1.866,1.829h-1a.888.888,0,0,0-.9-1,.736.736,0,0,0-.8.8c0,.486.239.718,1.064,1.032,1.174.448,1.77.88,1.77,2A1.769,1.769,0,0,1,86.86,34.707Zm-19.732,0a1.631,1.631,0,0,1-1.649-1.831c0-1.269.91-2.026,2.435-2.026a5.949,5.949,0,0,1,.626.019v-.8c0-.485-.1-1.042-.884-1.042-.858,0-.912.614-.947,1.021h-.99A1.758,1.758,0,0,1,67.692,28.2c1.234,0,1.86.6,1.86,1.772v3.445c0,.385.033.971.05,1.177h-.94a4.066,4.066,0,0,1-.062-.69A1.478,1.478,0,0,1,67.128,34.707Zm.844-3.071c-.946,0-1.467.411-1.467,1.157a.933.933,0,0,0,.917,1.045c.822,0,1.142-.523,1.142-1.865v-.306A3.868,3.868,0,0,0,67.973,31.636ZM72.846,34.7a1.3,1.3,0,0,1-1.329-.815c0,.2-.013.482-.031.711h-.977c.012-.35.013-.994.013-1.738V25.807h1.031v3.288a1.478,1.478,0,0,1,1.471-.893c1.221,0,1.84,1.039,1.84,3.089C74.863,33.553,74.184,34.7,72.846,34.7Zm-.122-5.594c-.859,0-1.209.684-1.209,2.36,0,1.4.192,2.335,1.129,2.335.8,0,1.175-.792,1.175-2.491C73.819,29.786,73.481,29.107,72.724,29.107Zm11.145,5.575c-.873,0-1.229-.389-1.229-1.342V29.182H81.77v-.875h.869V26.652h1.023v1.655h1.066v.875H83.663v3.964c0,.426.091.673.557.673a2.181,2.181,0,0,0,.421-.032v.786A2.329,2.329,0,0,1,83.868,34.681Zm-19.45,0c-.873,0-1.229-.389-1.229-1.342V29.182H62.32v-.875h.869V26.652h1.024v1.655h1.064v.875H64.213v3.964c0,.426.091.673.556.673a2.181,2.181,0,0,0,.421-.032v.786A2.325,2.325,0,0,1,64.418,34.681Zm36.865-.084h-1.024V30.242c0-.759-.27-1.129-.825-1.129-.666,0-1.032.552-1.032,1.555V34.6H97.377V30.2c0-1.169,0-1.6-.014-1.888h.991a6.991,6.991,0,0,1,.035.768,1.449,1.449,0,0,1,1.4-.873,1.212,1.212,0,0,1,1.3.92,1.586,1.586,0,0,1,1.525-.92c1.02,0,1.537.622,1.537,1.848V34.6h-1.02V30.219c0-.749-.274-1.112-.837-1.112-.834,0-1.009.807-1.009,1.484V34.6ZM43.4,34.6H42.041V28.67c0-1.763-.01-2.26-.018-2.659h1.308a10.172,10.172,0,0,1,.049,1.106,2.056,2.056,0,0,1,2.034-1.257,2.083,2.083,0,0,1,1.6.612,2.915,2.915,0,0,1,.633,2.043V34.6H46.28V28.788c0-1.163-.42-1.729-1.284-1.729-1.117,0-1.594.727-1.594,2.431V34.6Zm51.389,0h-.973V32.486H90.9v-.871l2.571-5.163h1.317v5.164h.785l-.1.87h-.683V34.6Zm-.937-7.266c-.306.815-1.118,2.52-1.712,3.765l-.248.52h1.923V29.492c0-.748,0-1.528.036-2.162h0ZM76.663,34.6H75.632V25.807h1.031V34.6ZM50.5,34.6H49.143V26.01H50.5V34.6Zm-9.96,0H39.183V26.01h1.352V34.6Zm-20.661,0H18.521V26.01h1.353V34.6Zm-14.491,0H4.031V27.161H2.923V26.01H4.031V24.884c0-1.105.36-2.423,2.076-2.423a2.86,2.86,0,0,1,.72.094V23.74a2.559,2.559,0,0,0-.557-.07c-.63,0-.887.363-.887,1.252V26.01H6.722v1.151H5.383V34.6ZM50.5,24.369H49.15V22.563H50.5v1.805Zm-9.958,0H39.191V22.563h1.353v1.805Zm-20.663,0H18.527V22.563H19.88v1.805Zm53.168-6.623A8.788,8.788,0,0,1,67,15.476a8.773,8.773,0,0,1-2.632-6.615,8.68,8.68,0,0,1,2.677-6.6A8.92,8.92,0,0,1,73.121,0a8.794,8.794,0,0,1,6.017,2.267,8.7,8.7,0,0,1,2.669,6.593C81.807,14.092,78.206,17.746,73.049,17.746Zm.074-14.728c-2.7,0-5.415,1.806-5.415,5.84,0,4.346,2.784,5.9,5.389,5.9,2.5,0,5.416-1.544,5.416-5.9C78.512,4.824,75.805,3.019,73.122,3.019ZM52.567,17.746a8.789,8.789,0,0,1-6.054-2.27,8.773,8.773,0,0,1-2.632-6.615,8.679,8.679,0,0,1,2.678-6.6A9.287,9.287,0,0,1,57.6,1.442a8.059,8.059,0,0,1,3.227,4.219h-3.54a5.1,5.1,0,0,0-4.647-2.643c-2.7,0-5.416,1.806-5.416,5.84,0,4.346,2.784,5.9,5.39,5.9a5.135,5.135,0,0,0,5.177-3.94H52.763V8.238h8.544c.013.229.019.433.019.623C61.326,14.092,57.724,17.746,52.567,17.746Zm56.616-.287H101.5V14.884h2.32V2.863H101.5V.287h7.681V2.863h-2.32V14.884h2.32v2.574Zm-16.562-.035H84.99V.251h6.925c3.359,0,5.365,1.807,5.365,4.833a3.51,3.51,0,0,1-2,3.312,3.923,3.923,0,0,1,2.755,3.974,4.884,4.884,0,0,1-1.463,3.677A5.641,5.641,0,0,1,92.622,17.424ZM88.029,9.915v4.927h4.283a2.451,2.451,0,0,0,2.672-2.452,2.425,2.425,0,0,0-.843-1.957,3.4,3.4,0,0,0-2.133-.518Zm0-7.086V7.34H91.6c1.736,0,2.627-.739,2.649-2.2,0-1.492-.941-2.314-2.649-2.314H88.029ZM37.292,17.424h-3.04V2.828H29.371V.251h12.8V2.828H37.292v14.6Zm-16.658,0H17.594V11.292L11.257.251h3.326l4.53,7.895L23.644.251H26.97L20.633,11.292v6.131Zm-9.545,0H.848V.251h3.04v14.6h7.2v2.576ZM112.838,4.351a2.121,2.121,0,0,1-2.162-2.175,2.162,2.162,0,1,1,4.324,0A2.121,2.121,0,0,1,112.838,4.351Zm0-4a1.78,1.78,0,0,0-1.815,1.825,1.815,1.815,0,1,0,3.631,0A1.78,1.78,0,0,0,112.838.35Zm-.42,2.971h-.4V.946h1.037a.7.7,0,0,1,.772.717.673.673,0,0,1-.5.7l.484.956h-.473l-.461-.916h-.456V3.32Zm0-1.983h0v.674h.624c.24,0,.377-.123.377-.337a.333.333,0,0,0-.377-.337Z" fill="#004146"/></g></g><path d="M30.186,43l0,0L21.5,37.14V21.5L30.185,43ZM0,30.188l0,0L5.859,21.5H21.5L0,30.187ZM37.141,21.5H21.5L43,12.813,37.141,21.5ZM21.5,21.5,12.812,0,21.5,5.86V21.5Z" transform="translate(34)" fill="#004146"/><path d="M12.813,43v0L21.5,21.5V37.14L12.816,43ZM43,30.187h0L21.5,21.5h15.64L43,30.184ZM21.495,21.5H5.86L0,12.813,21.5,21.5Zm.006,0h0V5.86L30.187,0Z" transform="translate(34)" fill="#bde2d6"/><path d="M30.187,43h0L21.5,21.5,43,30.187,30.188,43ZM12.813,43h0L0,30.187,21.5,21.5,12.814,43ZM21.5,21.5h0L0,12.813,12.813,0,21.5,21.5v0L30.187,0,43,12.813,21.5,21.5Z" transform="translate(34)" fill="#ec1558"/></g></svg>